PathFileType	4	(X/Y/Z)	Walk7.trc
DataRate	CameraRate	NumFrames	NumMarkers	Units	OrigDataRate	OrigDataStartFrame	OrigNumFrames
200.000000	200.000000	8	60	mm	200.000000	717	814
Frame#	Times		RCAR		LToe		RWRU		RACR1		LUA1		LFA1		LASI		RFHD		LElbow		RLFC		RFA1		RTH3		LLFC		STRN		LCAR		LWRR		LACR1		RTB2		RToe		RWRR		RMT5		RMT1		LWRU		RMFC		RTH2		C7		RTB3		RPSI		LPSI		RCAL		RTB1		LTH3		LTB1		LTB4		LTH1		LTH4		RTB4		CLAV		LMT1		LMFC		RASI		RMMAL		RLMAL		LTH2		RBHD		LBHD		LTB2		LTB3		RElbow		RTH4		RUA1		LMMAL		RBack		LCAL		T10		RTH1		LMT5		LElbowM		RElbowM		LLMAL
			X1	Y1	Z1	X2	Y2	Z2	X3	Y3	Z3	X4	Y4	Z4	X5	Y5	Z5	X6	Y6	Z6	X7	Y7	Z7	X8	Y8	Z8	X9	Y9	Z9	X10	Y10	Z10	X11	Y11	Z11	X12	Y12	Z12	X13	Y13	Z13	X14	Y14	Z14	X15	Y15	Z15	X16	Y16	Z16	X17	Y17	Z17	X18	Y18	Z18	X19	Y19	Z19	X20	Y20	Z20	X21	Y21	Z21	X22	Y22	Z22	X23	Y23	Z23	X24	Y24	Z24	X25	Y25	Z25	X26	Y26	Z26	X27	Y27	Z27	X28	Y28	Z28	X29	Y29	Z29	X30	Y30	Z30	X31	Y31	Z31	X32	Y32	Z32	X33	Y33	Z33	X34	Y34	Z34	X35	Y35	Z35	X36	Y36	Z36	X37	Y37	Z37	X38	Y38	Z38	X39	Y39	Z39	X40	Y40	Z40	X41	Y41	Z41	X42	Y42	Z42	X43	Y43	Z43	X44	Y44	Z44	X45	Y45	Z45	X46	Y46	Z46	X47	Y47	Z47	X48	Y48	Z48	X49	Y49	Z49	X50	Y50	Z50	X51	Y51	Z51	X52	Y52	Z52	X53	Y53	Z53	X54	Y54	Z54	X55	Y55	Z55	X56	Y56	Z56	X57	Y57	Z57	X58	Y58	Z58	X59	Y59	Z59	X60	Y60	Z60

717	3.585	820.45	867.39	346.52	1056.5	38.692	-57.869	823.43	899.38	278.4	723.19	1500.9	169.74	664.8	1337.2	-276.91	699.87	1035	-331.42	756.66	1032.7	-178.89	884.09	1657.9	42.838	621.97	1168.3	-315.66	568.95	512.73	184.23	766.99	1036.9	305.01	588.98	641.74	185.66	763.16	500.97	-173.96	825.95	1295.2	-27.625	736.54	869.65	-348.13	744.86	907.33	-292.14	684.57	1523.5	-201.22	457.86	301.31	157.35	407.33	30.622	66.532	757.62	896.66	338.18	325	53.382	145.98	374.77	60.943	58.928	664.85	907.1	-343.03	571.58	499.28	37.643	654.97	722.84	191.53	601.51	1559.4	1.3967	399.77	243.81	88.906	530.47	1066.1	31.781	530.49	1071.9	-78.085	214.9	202.31	86.156	523.9	364.66	100.37	755.74	649.16	-201.56	828.29	369.27	-64.786	838.42	285.18	-58.6	713.02	815.66	-232.07	734.28	732.01	-218.77	460.72	303.65	96.325	764.08	1465.3	-32.72	999.3	47.998	-46.049	767.16	502.08	-31.078	735.91	1026.2	133.2	320.91	187.18	37.825	277.29	183.52	128.38	791.84	749	-213.92	718.36	1696.3	66.123	716.58	1695.9	-76.693	862.79	284	-117.59	852.63	200.72	-53.512	675.88	1162.6	295.78	594.25	725.54	192.81	712.45	1321.6	245.9	854.11	99.072	-11.28	551.28	1440.7	125.67	775.39	42.537	-69.456	546.78	1201.3	-18.946	601.15	812.7	198.18	957.92	26.982	-136.62	597.54	1143.2	-227.71	644.08	1133.4	209.53	837.39	68.215	-108.4
718	3.59	823.73	867.72	345.61	1056.7	38.116	-57.824	826.99	899.89	277.55	728.58	1502.1	168.66	670.3	1338.3	-277.92	705.71	1036.3	-332.43	761.76	1033.8	-179.79	889.48	1658.7	41.891	627.44	1169.4	-316.78	579.1	512.74	184.63	771.15	1037.8	304.1	597.72	641.31	185.6	765.15	501.29	-174.64	831.17	1296.2	-28.425	742.86	871.07	-348.98	751.06	908.83	-293.02	690.1	1524.6	-202.12	465.67	303.05	157.66	409.27	30.573	67.449	761.09	897.54	337.29	327.58	56.428	146	378.01	62.697	59.634	671.07	908.36	-343.9	582.52	498.58	38.074	662.75	723.21	191.25	606.85	1560.4	0.40467	406.84	246.45	89.093	535.42	1067	30.825	535.67	1073	-79.063	221.72	208.57	85.902	532.84	365.34	100.72	758.56	649.61	-202.23	829.99	369.44	-65.41	839.65	285.3	-59.086	717.12	816.42	-232.85	737.72	732.62	-219.4	468.67	305.31	96.695	769.42	1466.3	-33.636	999.48	48.021	-45.995	769.71	502.69	-31.84	740.3	1026.7	131.22	327.37	190.91	38.012	283.33	188.26	128.44	795.46	749.1	-215.04	723.8	1697.3	65.132	722.04	1696.8	-77.68	863.8	283.88	-118.16	853.4	200.75	-53.839	680.6	1163.8	294.69	601.99	725.13	192.22	717.65	1322.8	244.82	854.33	99.147	-11.394	556.7	1441.9	124.89	775.43	42.553	-69.533	551.88	1202.3	-20.017	607.92	812.46	197.37	957.89	26.889	-136.82	603.02	1144.4	-228.81	648.84	1134.8	208.44	837.37	68.138	-108.43
719	3.595	827.05	868.05	344.71	1056.9	37.566	-57.768	830.59	900.41	276.71	733.91	1503.2	167.61	675.8	1339.5	-278.95	711.55	1037.7	-333.47	766.83	1034.8	-180.61	894.83	1659.4	40.974	632.89	1170.6	-317.94	589.37	512.75	185.01	775.31	1038.6	303.2	606.53	640.89	185.55	767.05	501.58	-175.27	836.35	1297.1	-29.176	749.21	872.48	-349.83	757.28	910.32	-293.92	695.64	1525.6	-203.01	473.7	304.81	157.89	411.55	30.633	68.502	764.62	898.41	336.41	330.57	59.719	146.09	381.64	64.583	60.41	677.32	909.59	-344.78	593.55	497.95	38.463	670.55	723.6	190.96	612.17	1561.3	-0.59611	414.14	249.14	89.198	540.31	1067.8	29.826	540.81	1074.1	-80.08	228.81	214.75	85.588	541.92	366.07	101.09	761.2	649.99	-202.89	831.65	369.6	-66.009	840.86	285.41	-59.547	721.12	817.11	-233.58	741.02	733.15	-220	476.83	307.03	96.915	774.72	1467.2	-34.518	999.64	48.045	-45.93	772.2	503.25	-32.542	744.62	1027.2	129.19	334.09	194.65	38.143	289.66	193.02	128.46	798.93	749.11	-216.12	729.19	1698.2	64.157	727.47	1697.7	-78.648	864.76	283.75	-118.71	854.14	200.78	-54.144	685.31	1165.1	293.63	609.77	724.72	191.68	722.79	1324	243.76	854.54	99.217	-11.493	562.07	1443	124.09	775.46	42.565	-69.602	556.94	1203.3	-21.112	614.68	812.22	196.6	957.85	26.812	-136.98	608.48	1145.6	-229.95	653.57	1136.2	207.4	837.33	68.063	-108.44
720	3.6	830.43	868.38	343.81	1057	37.035	-57.706	834.22	900.94	275.88	739.16	1504.2	166.58	681.29	1340.5	-280	717.39	1039	-334.53	771.87	1035.8	-181.35	900.14	1660.1	40.09	638.33	1171.7	-319.15	599.75	512.78	185.38	779.48	1039.5	302.34	615.38	640.51	185.51	768.87	501.85	-175.86	841.49	1297.9	-29.877	755.6	873.87	-350.68	763.53	911.8	-294.83	701.2	1526.6	-203.89	481.93	306.59	158.04	414.22	30.832	69.692	768.19	899.27	335.56	333.99	63.237	146.28	385.66	66.592	61.256	683.6	910.79	-345.68	604.65	497.39	38.804	678.36	724.02	190.66	617.45	1562.2	-1.6062	421.67	251.85	89.218	545.14	1068.6	28.79	545.9	1075.1	-81.129	236.18	220.81	85.201	551.08	366.87	101.49	763.69	650.29	-203.53	833.29	369.74	-66.581	842.04	285.5	-59.983	725.01	817.74	-234.28	744.2	733.62	-220.59	485.18	308.81	96.978	780	1468.1	-35.365	999.8	48.063	-45.857	774.62	503.75	-33.185	748.89	1027.7	127.12	341.07	198.38	38.213	296.28	197.77	128.4	802.27	749.04	-217.16	734.54	1699.1	63.198	732.86	1698.6	-79.596	865.69	283.61	-119.24	854.86	200.79	-54.431	689.99	1166.3	292.62	617.58	724.34	191.17	727.88	1325.1	242.75	854.74	99.286	-11.581	567.38	1444.1	123.25	775.48	42.577	-69.666	561.97	1204.3	-22.225	621.44	811.99	195.85	957.81	26.745	-137.12	613.91	1146.7	-231.15	658.26	1137.6	206.41	837.29	67.989	-108.44
721	3.605	833.85	868.69	342.92	1057.2	36.523	-57.639	837.9	901.48	275.06	744.34	1505.3	165.57	686.77	1341.6	-281.05	723.24	1040.2	-335.62	776.89	1036.7	-182.01	905.41	1660.8	39.239	643.76	1172.7	-320.39	610.21	512.84	185.72	783.65	1040.4	301.49	624.27	640.16	185.48	770.64	502.11	-176.42	846.59	1298.7	-30.53	762.02	875.23	-351.54	769.8	913.27	-295.75	706.78	1527.5	-204.76	490.37	308.39	158.11	417.3	31.195	71.017	771.83	900.13	334.74	337.88	66.956	146.57	390.11	68.717	62.171	689.9	911.93	-346.59	615.79	496.94	39.091	686.17	724.46	190.35	622.7	1563.1	-2.6261	429.41	254.59	89.154	549.91	1069.3	27.724	550.94	1076.2	-82.2	243.81	226.71	84.734	560.3	367.73	101.93	766.05	650.55	-204.16	834.9	369.88	-67.125	843.19	285.58	-60.394	728.79	818.31	-234.94	747.25	734.03	-221.18	493.71	310.66	96.876	785.25	1469	-36.178	999.95	48.073	-45.781	776.97	504.2	-33.774	753.1	1028.2	125.01	348.31	202.08	38.219	303.18	202.49	128.29	805.49	748.91	-218.16	739.84	1700	62.254	738.21	1699.5	-80.525	866.6	283.47	-119.75	855.57	200.8	-54.699	694.64	1167.5	291.65	625.4	724	190.7	732.91	1326.2	241.76	854.92	99.354	-11.658	572.61	1445.1	122.39	775.51	42.59	-69.728	566.96	1205.3	-23.349	628.2	811.77	195.12	957.77	26.684	-137.24	619.31	1147.7	-232.39	662.89	1138.9	205.46	837.26	67.916	-108.44
722	3.61	837.33	869	342.04	1057.3	36.027	-57.572	841.62	902.03	274.26	749.45	1506.3	164.59	692.25	1342.6	-282.12	729.1	1041.4	-336.73	781.87	1037.5	-182.58	910.64	1661.5	38.423	649.2	1173.7	-321.66	620.74	512.93	186.03	787.83	1041.2	300.68	633.18	639.85	185.44	772.39	502.36	-176.95	851.65	1299.4	-31.137	768.47	876.55	-352.41	776.08	914.71	-296.7	712.37	1528.4	-205.63	498.99	310.21	158.1	420.85	31.749	72.469	775.51	900.97	333.94	342.26	70.843	146.96	395.01	70.946	63.149	696.23	913.02	-347.51	626.96	496.6	39.321	693.98	724.94	190.03	627.92	1564	-3.656	437.36	257.33	89.012	554.63	1070	26.634	555.93	1077.2	-83.286	251.67	232.42	84.179	569.55	368.68	102.46	768.3	650.75	-204.77	836.48	370	-67.638	844.33	285.65	-60.779	732.48	818.82	-235.58	750.2	734.39	-221.76	502.41	312.55	96.606	790.46	1469.8	-36.959	1000.1	48.073	-45.705	779.24	504.59	-34.309	757.26	1028.8	122.87	355.8	205.72	38.161	310.35	207.16	128.1	808.59	748.73	-219.12	745.09	1700.8	61.327	743.52	1700.3	-81.434	867.49	283.32	-120.23	856.27	200.8	-54.949	699.27	1168.6	290.72	633.24	723.69	190.26	737.87	1327.3	240.82	855.1	99.422	-11.727	577.77	1446.1	121.48	775.52	42.605	-69.791	571.91	1206.2	-24.475	634.95	811.58	194.42	957.73	26.627	-137.35	624.7	1148.7	-233.67	667.48	1140.1	204.56	837.22	67.847	-108.43
723	3.615	840.87	869.31	341.17	1057.4	35.551	-57.505	845.39	902.58	273.48	754.48	1507.2	163.64	697.73	1343.5	-283.19	734.98	1042.6	-337.86	786.82	1038.3	-183.06	915.84	1662.2	37.64	654.64	1174.7	-322.97	631.32	513.07	186.3	792.02	1042	299.88	642.1	639.61	185.39	774.12	502.59	-177.45	856.67	1300.1	-31.701	774.94	877.83	-353.28	782.39	916.13	-297.65	717.98	1529.2	-206.49	507.78	312.04	158.02	424.9	32.514	74.038	779.25	901.8	333.17	347.15	74.861	147.45	400.36	73.264	64.187	702.58	914.06	-348.44	638.12	496.38	39.494	701.79	725.47	189.72	633.1	1564.8	-4.6957	445.52	260.06	88.8	559.3	1070.7	25.529	560.87	1078.1	-84.375	259.77	237.9	83.531	578.8	369.71	103.11	770.48	650.93	-205.36	838.04	370.12	-68.117	845.44	285.71	-61.138	736.07	819.29	-236.2	753.06	734.71	-222.34	511.27	314.5	96.166	795.65	1470.5	-37.709	1000.2	48.061	-45.63	781.44	504.94	-34.794	761.38	1029.3	120.7	363.55	209.28	38.04	317.78	211.74	127.84	811.61	748.53	-220.03	750.3	1701.6	60.416	748.81	1701.1	-82.326	868.38	283.17	-120.68	856.95	200.79	-55.181	703.86	1169.7	289.83	641.08	723.44	189.86	742.76	1328.3	239.91	855.27	99.492	-11.789	582.85	1447.1	120.54	775.54	42.625	-69.854	576.82	1207	-25.598	641.7	811.41	193.74	957.69	26.573	-137.44	630.07	1149.6	-235	672.01	1141.3	203.7	837.19	67.784	-108.42
724	3.62	844.47	869.6	340.32	1057.5	35.096	-57.439	849.21	903.14	272.72	759.43	1508.1	162.71	703.22	1344.3	-284.27	740.86	1043.7	-339	791.74	1039.1	-183.47	921	1662.8	36.892	660.1	1175.6	-324.31	641.92	513.27	186.55	796.22	1042.8	299.12	651.03	639.43	185.33	775.85	502.83	-177.93	861.65	1300.7	-32.223	781.44	879.08	-354.16	788.71	917.51	-298.62	723.6	1530	-207.34	516.73	313.87	157.87	429.5	33.504	75.709	783.05	902.6	332.44	352.56	78.967	148.03	406.18	75.655	65.274	708.95	915.05	-349.38	649.25	496.28	39.612	709.58	726.05	189.41	638.26	1565.6	-5.7446	453.89	262.75	88.53	563.92	1071.3	24.416	565.75	1079	-85.46	268.08	243.11	82.788	588.03	370.83	103.9	772.63	651.08	-205.93	839.58	370.23	-68.56	846.53	285.75	-61.47	739.57	819.71	-236.81	755.86	735	-222.92	520.28	316.48	95.553	800.8	1471.2	-38.429	1000.4	48.038	-45.559	783.56	505.25	-35.232	765.45	1029.8	118.5	371.56	212.74	37.861	325.47	216.2	127.51	814.56	748.31	-220.89	755.46	1702.3	59.521	754.07	1701.8	-83.199	869.28	283.02	-121.09	857.61	200.78	-55.395	708.41	1170.7	288.99	648.93	723.24	189.47	747.58	1329.2	239.03	855.42	99.562	-11.845	587.85	1448	119.56	775.55	42.649	-69.919	581.71	1207.9	-26.71	648.43	811.28	193.08	957.65	26.52	-137.52	635.42	1150.5	-236.37	676.49	1142.4	202.89	837.16	67.731	-108.41
